<?xml version="1.0" encoding="UTF-8" standalone="no" ?>
<!DOCTYPE svg PUBLIC "-//W3C//DTD SVG 1.1//EN" "http://www.w3.org/Graphics/SVG/1.1/DTD/svg11.dtd">
<svg xmlns="http://www.w3.org/2000/svg" xmlns:xlink="http://www.w3.org/1999/xlink" version="1.1" width="1771" height="2002" viewBox="0 0 1771 2002" xml:space="preserve">
<desc>Created with Fabric.js 4.2.0</desc>
<defs>
</defs>
<g transform="matrix(0 0 0 0 0 0)" id="1e77f9fb-1318-4721-864e-a9bd081e271a"  >
</g>
<g transform="matrix(1 0 0 1 885.5 1001)" id="17a204d2-8c3a-4480-92e5-19368b184cbe"  >
<rect style="stroke: none; stroke-width: 1; stroke-dasharray: none; stroke-linecap: butt; stroke-dashoffset: 0; stroke-linejoin: miter; stroke-miterlimit: 4; fill: rgb(255,255,255); fill-rule: nonzero; opacity: 1; visibility: hidden;" vector-effect="non-scaling-stroke"  x="-885.5" y="-1001" rx="0" ry="0" width="1771" height="2002" />
</g>
<g transform="matrix(17.34 0 0 17.34 851.69 1138.66)"  >
<path style="stroke: none; stroke-width: 1; stroke-dasharray: none; stroke-linecap: butt; stroke-dashoffset: 0; stroke-linejoin: miter; stroke-miterlimit: 4; fill: rgb(33,96,155); fill-rule: evenodd; opacity: 1;" vector-effect="non-scaling-stroke"  transform=" translate(-44.84, -60.7)" d="M 88.708 75.464 L 88.306 76.506 C 81.456 89.846 69.317 98.03 52.003 98.391 C 43.909 98.558 36.197 96.48100000000001 31.159 94.223 C 20.287 89.338 11.142 80.279 6.148 70.6 C -1.016 56.724999999999994 -2.308 37.42399999999999 12.588000000000001 23.007999999999996 C 12.818000000000001 23.007999999999996 10.781 26.133999999999997 11.011000000000001 26.133999999999997 L 10.601 27.467999999999996 C -0.133 61.074 32.938 89.874 65.086 86.58 C 72.812 85.788 82.664 81.557 88.708 75.464" stroke-linecap="round" />
</g>
<g transform="matrix(17.34 0 0 17.34 1098.77 802.61)"  >
<path style="stroke: none; stroke-width: 1; stroke-dasharray: none; stroke-linecap: butt; stroke-dashoffset: 0; stroke-linejoin: miter; stroke-miterlimit: 4; fill: rgb(33,96,155); fill-rule: evenodd; opacity: 1;" vector-effect="non-scaling-stroke"  transform=" translate(-59.1, -41.32)" d="M 69.254 61.568 C 77.342 61.623 85.79 57.842999999999996 90.793 52.536 C 86.41600000000001 63.646 73.74300000000001 70.787 56.74900000000001 68.516 C 42.519000000000005 66.61200000000001 28.96400000000001 52.293000000000006 27.56800000000001 37.94500000000001 C 26.547000000000008 27.503000000000007 30.186000000000007 21.271000000000008 36.18300000000001 13.711000000000006 C 34.099000000000004 17.665000000000006 33.32000000000001 20.714000000000006 33.126000000000005 22.659000000000006 C 30.848000000000006 45.24700000000001 51.17 61.449000000000005 69.254 61.568000000000005" stroke-linecap="round" />
</g>
<g transform="matrix(17.34 0 0 17.34 1291.85 542.1)"  >
<path style="stroke: none; stroke-width: 1; stroke-dasharray: none; stroke-linecap: butt; stroke-dashoffset: 0; stroke-linejoin: miter; stroke-miterlimit: 4; fill: rgb(33,96,155); fill-rule: evenodd; opacity: 1;" vector-effect="non-scaling-stroke"  transform=" translate(-70.23, -26.3)" d="M 89.98 33.512 C 88.723 36.396 81.48400000000001 41.842 78.287 42.522999999999996 C 65.628 45.22 57.52100000000001 39.217 53.274 32.385999999999996 C 52.643 31.365999999999996 51.476 28.579999999999995 51.267 27.870999999999995 C 49.620000000000005 22.270999999999994 50.377 13.800999999999995 55.290000000000006 9.416999999999994 C 53.81000000000001 13.585999999999995 53.59400000000001 18.427999999999994 54.373000000000005 21.575999999999993 C 54.845000000000006 23.478999999999992 56.283 26.801999999999992 57.72200000000001 28.891999999999992 C 60.34000000000001 32.69899999999999 62.001000000000005 33.623999999999995 65.364 35.645999999999994 C 66.879 36.55599999999999 68.504 37.285999999999994 69.206 37.486 C 72.39500000000001 38.425 79.128 40.897999999999996 89.981 33.512" stroke-linecap="round" />
</g>
</svg>